<svg width="27" height="31" viewBox="0 0 27 31" fill="none" xmlns="http://www.w3.org/2000/svg">
<path d="M13.2716 7.28346C12.9483 5.52384 13.7816 3.71298 14.7851 2.49262C15.8911 1.1461 17.7891 0.113478 19.411 0C19.685 1.84485 18.931 3.64232 17.9384 4.91374C16.8737 6.27963 15.0431 7.33884 13.2716 7.28346ZM22.7855 13.6595C23.2874 12.2614 24.2816 11.0035 25.8241 10.1548C24.2654 8.21261 22.0769 7.08505 20.0116 7.08505C17.2792 7.08505 16.1239 8.3849 14.226 8.3849C12.2709 8.3849 10.7876 7.08505 8.42082 7.08505C6.09992 7.08505 3.62942 8.49749 2.06262 10.9097C1.48653 11.8014 1.09628 12.9091 0.88345 14.1429C0.292888 17.6041 1.17505 22.1123 3.80654 26.1152C5.08601 28.0576 6.79144 30.2455 9.01939 30.2646C11.0041 30.284 11.5671 28.9976 14.2539 28.9844C16.9446 28.9691 17.4546 30.2779 19.4366 30.259C21.6652 30.2403 23.4645 27.819 24.744 25.8768C25.6551 24.4831 25.9996 23.7791 26.708 22.2034C23.1059 20.847 21.6243 16.8838 22.7855 13.6595Z" fill="black"/>
</svg>
