<svg width="31" height="30" viewBox="0 0 31 30" fill="none" xmlns="http://www.w3.org/2000/svg">
<path d="M30.9997 14.9072C30.9635 12.0311 30.0838 9.22493 28.4644 6.81925C26.845 4.41357 24.5535 2.50854 21.8595 1.32853C19.1653 0.148517 16.1811 -0.257328 13.2581 0.158762C10.3352 0.57487 7.59515 1.79558 5.36081 3.67718C3.12646 5.55876 1.49084 8.02285 0.646547 10.7792C-0.197724 13.5356 -0.215511 16.4695 0.595317 19.2354C1.40615 22.0014 3.0118 24.484 5.22319 26.3911C7.43456 28.2983 10.1596 29.5504 13.0773 30V19.303H9.20223V14.9072H13.0773V11.5679C12.9876 10.7915 13.074 10.0053 13.3306 9.26496C13.5871 8.52459 14.0074 7.84805 14.5617 7.28311C15.116 6.71815 15.7909 6.27855 16.5388 5.99535C17.2867 5.71214 18.0894 5.59221 18.89 5.64405C20.0521 5.65954 21.2116 5.76045 22.3582 5.94591V9.71911H20.4207C20.0866 9.67807 19.7472 9.71067 19.4279 9.81449C19.1084 9.91831 18.8169 10.0907 18.5751 10.3189C18.3333 10.5471 18.1473 10.8253 18.0309 11.1329C17.9142 11.4406 17.8703 11.7698 17.9018 12.0962V14.9449H22.2032L21.5057 19.3407H17.9212V29.9057C21.583 29.3418 24.916 27.5186 27.3155 24.7668C29.7149 22.015 31.022 18.517 30.9997 14.9072Z" fill="#219EBC"/>
</svg>
