<svg width="31" height="31" viewBox="0 0 31 31" fill="none" xmlns="http://www.w3.org/2000/svg">
<path d="M29.064 15.8012C29.064 14.6861 28.9717 13.8723 28.7719 13.0284H15.7783V18.0616H23.4053C23.2515 19.3124 22.4211 21.1961 20.5759 22.4618L20.55 22.6304L24.6584 25.7494L24.943 25.7772C27.5571 23.4113 29.064 19.9302 29.064 15.8012Z" fill="#4285F4"/>
<path d="M15.7771 29.0624C19.5137 29.0624 22.6505 27.8567 24.9418 25.7771L20.5747 22.4618C19.4061 23.2605 17.8376 23.818 15.7771 23.818C12.1175 23.818 9.01134 21.4521 7.9041 18.1821L7.74181 18.1956L3.46993 21.4356L3.41406 21.5878C5.68983 26.0182 10.3644 29.0624 15.7771 29.0624Z" fill="#34A853"/>
<path d="M7.90468 18.1824C7.61252 17.3386 7.44344 16.4343 7.44344 15.5001C7.44344 14.5657 7.61252 13.6616 7.8893 12.8177L7.88156 12.6379L3.55614 9.34595L3.41463 9.41192C2.47668 11.2505 1.93848 13.315 1.93848 15.5001C1.93848 17.6851 2.47668 19.7496 3.41463 21.5881L7.90468 18.1824Z" fill="#FBBC05"/>
<path d="M15.7772 7.18163C18.3759 7.18163 20.1289 8.2817 21.1284 9.20099L25.0341 5.46375C22.6354 3.27869 19.5138 1.9375 15.7772 1.9375C10.3644 1.9375 5.68984 4.98151 3.41406 9.41188L7.88876 12.8176C9.01138 9.54756 12.1175 7.18163 15.7772 7.18163Z" fill="#EB4335"/>
</svg>
