<svg xmlns="http://www.w3.org/2000/svg" xmlns:xlink="http://www.w3.org/1999/xlink" width="500" zoomAndPan="magnify" viewBox="0 0 375 374.999991" height="500" preserveAspectRatio="xMidYMid meet" version="1.0"><path fill="#000000" d="M 184.609375 20.167969 C 181.058594 20.164062 177.511719 20.277344 173.964844 20.507812 C 170.421875 20.734375 166.890625 21.082031 163.367188 21.546875 C 159.847656 22.011719 156.347656 22.589844 152.863281 23.285156 C 149.382812 23.980469 145.925781 24.789062 142.496094 25.710938 C 139.066406 26.636719 135.671875 27.671875 132.3125 28.820312 C 128.949219 29.96875 125.632812 31.226562 122.355469 32.59375 C 119.078125 33.960938 115.847656 35.433594 112.667969 37.015625 C 109.488281 38.59375 106.363281 40.28125 103.296875 42.066406 C 100.226562 43.855469 97.21875 45.742188 94.277344 47.726562 C 91.332031 49.714844 88.457031 51.792969 85.648438 53.96875 C 82.84375 56.144531 80.113281 58.414062 77.457031 60.769531 C 74.800781 63.125 72.222656 65.566406 69.726562 68.09375 C 67.234375 70.621094 64.824219 73.226562 62.5 75.914062 C 60.179688 78.601562 57.945312 81.359375 55.804688 84.195312 C 53.664062 87.027344 51.621094 89.929688 49.671875 92.898438 C 47.722656 95.867188 45.875 98.898438 44.125 101.988281 C 42.378906 105.078125 40.734375 108.222656 39.191406 111.425781 C 37.652344 114.625 36.21875 117.871094 34.894531 121.164062 C 33.566406 124.460938 32.351562 127.796875 31.246094 131.167969 C 30.140625 134.542969 29.148438 137.953125 28.269531 141.394531 C 27.390625 144.832031 26.625 148.300781 25.972656 151.789062 C 25.320312 155.28125 24.785156 158.789062 24.367188 162.316406 C 23.949219 165.84375 23.644531 169.378906 23.460938 172.925781 C 23.277344 176.472656 23.207031 180.019531 23.257812 183.570312 C 23.304688 187.121094 23.472656 190.667969 23.757812 194.207031 C 24.039062 197.75 24.441406 201.273438 24.957031 204.789062 C 25.472656 208.300781 26.105469 211.792969 26.855469 215.265625 C 27.601562 218.738281 28.464844 222.179688 29.4375 225.59375 C 30.414062 229.011719 31.5 232.390625 32.699219 235.730469 C 33.898438 239.074219 35.207031 242.375 36.621094 245.632812 C 38.039062 248.886719 39.5625 252.09375 41.191406 255.25 C 42.820312 258.40625 44.550781 261.503906 46.382812 264.542969 L 23.632812 332.785156 C 23.535156 333.074219 23.457031 333.367188 23.398438 333.664062 C 23.335938 333.960938 23.292969 334.261719 23.265625 334.5625 C 23.242188 334.867188 23.234375 335.167969 23.242188 335.472656 C 23.253906 335.773438 23.28125 336.074219 23.328125 336.375 C 23.375 336.675781 23.4375 336.972656 23.519531 337.265625 C 23.597656 337.554688 23.695312 337.84375 23.8125 338.125 C 23.925781 338.40625 24.058594 338.675781 24.203125 338.941406 C 24.351562 339.207031 24.515625 339.464844 24.691406 339.710938 C 24.867188 339.957031 25.058594 340.191406 25.265625 340.414062 C 25.46875 340.636719 25.6875 340.847656 25.917969 341.046875 C 26.148438 341.242188 26.390625 341.425781 26.640625 341.597656 C 26.894531 341.765625 27.152344 341.917969 27.425781 342.058594 C 27.695312 342.195312 27.972656 342.316406 28.253906 342.421875 C 28.539062 342.527344 28.828125 342.617188 29.125 342.6875 C 29.417969 342.757812 29.71875 342.8125 30.019531 342.847656 C 30.320312 342.882812 30.621094 342.902344 30.925781 342.902344 C 31.757812 342.902344 32.566406 342.769531 33.355469 342.503906 L 101.597656 319.757812 C 104.25 321.351562 106.949219 322.871094 109.6875 324.308594 C 112.429688 325.746094 115.210938 327.105469 118.027344 328.382812 C 120.847656 329.660156 123.699219 330.859375 126.585938 331.972656 C 129.472656 333.085938 132.390625 334.117188 135.339844 335.0625 C 138.285156 336.011719 141.257812 336.871094 144.253906 337.648438 C 147.25 338.421875 150.265625 339.109375 153.300781 339.710938 C 156.339844 340.3125 159.390625 340.828125 162.453125 341.253906 C 165.519531 341.679688 168.59375 342.019531 171.679688 342.265625 C 174.765625 342.515625 177.855469 342.675781 180.949219 342.746094 C 184.042969 342.820312 187.136719 342.800781 190.230469 342.695312 C 193.324219 342.585938 196.410156 342.390625 199.492188 342.109375 C 202.574219 341.824219 205.648438 341.449219 208.707031 340.988281 C 211.765625 340.527344 214.8125 339.980469 217.839844 339.34375 C 220.871094 338.707031 223.878906 337.980469 226.867188 337.171875 C 229.851562 336.363281 232.8125 335.46875 235.75 334.488281 C 238.6875 333.507812 241.589844 332.445312 244.464844 331.296875 C 247.339844 330.148438 250.179688 328.921875 252.984375 327.609375 C 255.785156 326.296875 258.550781 324.90625 261.273438 323.4375 C 264 321.96875 266.675781 320.421875 269.3125 318.796875 C 271.945312 317.171875 274.53125 315.472656 277.070312 313.703125 C 279.605469 311.929688 282.089844 310.082031 284.519531 308.167969 C 286.953125 306.253906 289.324219 304.269531 291.640625 302.214844 C 293.957031 300.164062 296.214844 298.046875 298.410156 295.863281 C 300.605469 293.679688 302.734375 291.4375 304.800781 289.132812 C 306.863281 286.828125 308.863281 284.464844 310.792969 282.042969 C 312.722656 279.625 314.578125 277.152344 316.367188 274.625 C 318.152344 272.097656 319.867188 269.519531 321.507812 266.894531 C 323.144531 264.269531 324.707031 261.597656 326.191406 258.882812 C 327.675781 256.167969 329.082031 253.410156 330.410156 250.617188 C 331.734375 247.820312 332.980469 244.988281 334.144531 242.117188 C 335.308594 239.25 336.386719 236.351562 337.382812 233.421875 C 338.382812 230.492188 339.292969 227.535156 340.121094 224.550781 C 340.945312 221.570312 341.6875 218.566406 342.339844 215.539062 C 342.992188 212.515625 343.558594 209.472656 344.039062 206.414062 C 344.515625 203.355469 344.90625 200.289062 345.207031 197.207031 C 345.507812 194.128906 345.722656 191.042969 345.847656 187.949219 C 345.96875 184.855469 346.003906 181.761719 345.953125 178.667969 C 345.898438 175.574219 345.753906 172.484375 345.523438 169.394531 C 345.292969 166.308594 344.972656 163.234375 344.5625 160.164062 C 344.152344 157.097656 343.65625 154.042969 343.070312 151.003906 C 342.488281 147.964844 341.816406 144.945312 341.054688 141.945312 C 340.296875 138.941406 339.453125 135.96875 338.523438 133.015625 C 337.59375 130.0625 336.578125 127.140625 335.480469 124.246094 C 334.382812 121.351562 333.203125 118.492188 331.941406 115.667969 C 330.675781 112.839844 329.335938 110.054688 327.910156 107.304688 C 326.488281 104.558594 324.988281 101.851562 323.410156 99.191406 C 321.828125 96.527344 320.175781 93.914062 318.445312 91.347656 C 316.714844 88.78125 314.914062 86.265625 313.039062 83.800781 C 311.167969 81.339844 309.222656 78.929688 307.210938 76.578125 C 305.199219 74.226562 303.117188 71.9375 300.972656 69.707031 C 298.828125 67.472656 296.621094 65.304688 294.351562 63.199219 C 292.085938 61.097656 289.757812 59.058594 287.371094 57.089844 C 284.984375 55.117188 282.542969 53.21875 280.046875 51.386719 C 277.550781 49.558594 275.003906 47.800781 272.40625 46.117188 C 269.808594 44.433594 267.164062 42.824219 264.476562 41.292969 C 261.785156 39.761719 259.054688 38.3125 256.28125 36.9375 C 253.507812 35.5625 250.695312 34.269531 247.847656 33.058594 C 245 31.84375 242.121094 30.714844 239.207031 29.667969 C 236.296875 28.621094 233.355469 27.660156 230.386719 26.78125 C 227.417969 25.90625 224.425781 25.113281 221.414062 24.410156 C 218.398438 23.703125 215.367188 23.085938 212.320312 22.554688 C 209.269531 22.023438 206.207031 21.582031 203.132812 21.226562 C 200.058594 20.875 196.976562 20.609375 193.886719 20.429688 C 190.796875 20.253906 187.703125 20.167969 184.609375 20.167969 Z M 184.609375 327.535156 C 177.742188 327.527344 170.910156 327.039062 164.117188 326.070312 C 157.320312 325.097656 150.625 323.652344 144.035156 321.730469 C 137.441406 319.8125 131.019531 317.4375 124.761719 314.609375 C 118.507812 311.777344 112.480469 308.523438 106.6875 304.839844 C 105.429688 304.046875 104.058594 303.648438 102.574219 303.648438 C 101.742188 303.648438 100.929688 303.78125 100.144531 304.046875 L 43.066406 323.070312 L 62.097656 266 C 62.457031 264.90625 62.570312 263.785156 62.429688 262.640625 C 62.292969 261.496094 61.914062 260.433594 61.300781 259.457031 C 59.875 257.195312 58.511719 254.898438 57.214844 252.5625 C 55.914062 250.226562 54.679688 247.855469 53.511719 245.449219 C 52.339844 243.046875 51.238281 240.613281 50.203125 238.148438 C 49.167969 235.683594 48.199219 233.191406 47.300781 230.675781 C 46.402344 228.15625 45.574219 225.617188 44.816406 223.054688 C 44.058594 220.488281 43.371094 217.90625 42.753906 215.304688 C 42.136719 212.707031 41.589844 210.089844 41.117188 207.457031 C 40.644531 204.828125 40.242188 202.183594 39.914062 199.53125 C 39.589844 196.878906 39.332031 194.21875 39.152344 191.550781 C 38.96875 188.882812 38.863281 186.214844 38.828125 183.542969 C 38.792969 180.867188 38.832031 178.195312 38.941406 175.527344 C 39.054688 172.855469 39.238281 170.1875 39.5 167.527344 C 39.757812 164.867188 40.089844 162.214844 40.492188 159.574219 C 40.898438 156.929688 41.375 154.300781 41.921875 151.683594 C 42.472656 149.070312 43.089844 146.46875 43.78125 143.886719 C 44.472656 141.304688 45.238281 138.742188 46.070312 136.203125 C 46.902344 133.664062 47.804688 131.148438 48.773438 128.65625 C 49.746094 126.167969 50.785156 123.703125 51.890625 121.269531 C 52.996094 118.835938 54.167969 116.433594 55.40625 114.066406 C 56.644531 111.695312 57.945312 109.363281 59.3125 107.066406 C 60.679688 104.769531 62.105469 102.507812 63.597656 100.289062 C 65.089844 98.070312 66.640625 95.894531 68.25 93.761719 C 69.859375 91.625 71.527344 89.539062 73.25 87.496094 C 74.976562 85.453125 76.757812 83.460938 78.589844 81.515625 C 80.425781 79.570312 82.3125 77.679688 84.25 75.839844 C 86.1875 73.996094 88.175781 72.210938 90.214844 70.480469 C 92.25 68.75 94.332031 67.074219 96.460938 65.457031 C 98.589844 63.839844 100.761719 62.285156 102.976562 60.785156 C 105.191406 59.289062 107.445312 57.851562 109.738281 56.480469 C 112.03125 55.105469 114.359375 53.796875 116.726562 52.550781 C 119.089844 51.304688 121.488281 50.125 123.917969 49.011719 C 126.347656 47.894531 128.808594 46.851562 131.296875 45.871094 C 133.78125 44.890625 136.296875 43.984375 138.832031 43.140625 C 141.371094 42.300781 143.929688 41.53125 146.507812 40.832031 C 149.089844 40.132812 151.6875 39.503906 154.300781 38.945312 C 156.917969 38.386719 159.542969 37.902344 162.183594 37.492188 C 164.828125 37.078125 167.476562 36.738281 170.136719 36.472656 C 172.796875 36.203125 175.460938 36.011719 178.132812 35.890625 C 180.804688 35.769531 183.476562 35.722656 186.148438 35.75 C 188.820312 35.773438 191.492188 35.875 194.160156 36.046875 C 196.828125 36.222656 199.488281 36.46875 202.140625 36.785156 C 204.796875 37.105469 207.4375 37.496094 210.070312 37.960938 C 212.703125 38.425781 215.320312 38.964844 217.925781 39.574219 C 220.527344 40.179688 223.113281 40.859375 225.679688 41.609375 C 228.242188 42.363281 230.785156 43.183594 233.308594 44.074219 C 235.828125 44.964844 238.324219 45.921875 240.789062 46.949219 C 243.257812 47.976562 245.695312 49.070312 248.105469 50.234375 C 250.511719 51.394531 252.886719 52.621094 255.226562 53.914062 C 257.566406 55.207031 259.867188 56.5625 262.136719 57.980469 C 264.402344 59.398438 266.625 60.878906 268.808594 62.417969 C 270.996094 63.960938 273.136719 65.558594 275.230469 67.21875 C 277.328125 68.878906 279.378906 70.59375 281.378906 72.363281 C 283.382812 74.136719 285.332031 75.960938 287.234375 77.839844 C 289.136719 79.71875 290.988281 81.644531 292.78125 83.625 C 294.578125 85.605469 296.320312 87.632812 298.003906 89.710938 C 299.6875 91.785156 301.3125 93.90625 302.882812 96.070312 C 304.449219 98.238281 305.957031 100.445312 307.402344 102.691406 C 308.847656 104.941406 310.234375 107.226562 311.554688 109.550781 C 312.875 111.875 314.128906 114.234375 315.320312 116.625 C 316.511719 119.019531 317.636719 121.445312 318.695312 123.898438 C 319.753906 126.355469 320.742188 128.835938 321.664062 131.34375 C 322.585938 133.855469 323.4375 136.386719 324.21875 138.945312 C 325.003906 141.5 325.714844 144.074219 326.355469 146.671875 C 326.996094 149.265625 327.5625 151.878906 328.0625 154.503906 C 328.558594 157.128906 328.984375 159.769531 329.335938 162.417969 C 329.6875 165.070312 329.964844 167.726562 330.171875 170.390625 C 330.378906 173.058594 330.511719 175.726562 330.570312 178.398438 C 330.628906 181.070312 330.617188 183.742188 330.527344 186.414062 C 330.441406 189.085938 330.28125 191.753906 330.046875 194.417969 C 329.8125 197.082031 329.503906 199.734375 329.125 202.382812 C 328.746094 205.027344 328.292969 207.660156 327.765625 210.28125 C 327.242188 212.902344 326.644531 215.507812 325.976562 218.097656 C 325.308594 220.683594 324.570312 223.253906 323.761719 225.800781 C 322.953125 228.347656 322.074219 230.871094 321.125 233.371094 C 320.179688 235.871094 319.164062 238.34375 318.078125 240.785156 C 316.996094 243.230469 315.84375 245.644531 314.628906 248.023438 C 313.414062 250.402344 312.132812 252.75 310.785156 255.058594 C 309.441406 257.371094 308.03125 259.640625 306.5625 261.875 C 305.09375 264.105469 303.5625 266.296875 301.972656 268.445312 C 300.382812 270.59375 298.734375 272.695312 297.027344 274.753906 C 295.320312 276.8125 293.558594 278.824219 291.742188 280.785156 C 289.925781 282.746094 288.054688 284.65625 286.136719 286.511719 C 284.214844 288.371094 282.242188 290.175781 280.222656 291.925781 C 278.199219 293.675781 276.132812 295.367188 274.019531 297.003906 C 271.90625 298.640625 269.75 300.21875 267.546875 301.738281 C 265.347656 303.253906 263.105469 304.710938 260.824219 306.105469 C 258.546875 307.5 256.226562 308.832031 253.875 310.097656 C 251.519531 311.367188 249.132812 312.566406 246.714844 313.703125 C 244.292969 314.839844 241.84375 315.90625 239.367188 316.910156 C 236.886719 317.910156 234.382812 318.84375 231.855469 319.707031 C 229.324219 320.570312 226.773438 321.363281 224.199219 322.089844 C 221.625 322.8125 219.035156 323.464844 216.425781 324.046875 C 213.816406 324.625 211.191406 325.136719 208.554688 325.574219 C 205.917969 326.007812 203.269531 326.375 200.613281 326.664062 C 197.957031 326.957031 195.292969 327.175781 192.621094 327.320312 C 189.953125 327.464844 187.28125 327.535156 184.609375 327.535156 Z M 192.292969 266.0625 C 192.292969 266.566406 192.242188 267.066406 192.144531 267.558594 C 192.046875 268.054688 191.902344 268.535156 191.707031 269 C 191.515625 269.46875 191.277344 269.910156 190.996094 270.328125 C 190.71875 270.75 190.398438 271.136719 190.042969 271.492188 C 189.683594 271.851562 189.296875 272.167969 188.878906 272.449219 C 188.457031 272.730469 188.015625 272.964844 187.550781 273.160156 C 187.082031 273.351562 186.601562 273.5 186.109375 273.597656 C 185.613281 273.695312 185.113281 273.746094 184.609375 273.746094 C 184.105469 273.746094 183.605469 273.695312 183.109375 273.597656 C 182.613281 273.5 182.132812 273.351562 181.667969 273.160156 C 181.203125 272.964844 180.757812 272.730469 180.339844 272.449219 C 179.921875 272.167969 179.53125 271.851562 179.175781 271.492188 C 178.816406 271.136719 178.5 270.75 178.21875 270.328125 C 177.9375 269.910156 177.703125 269.46875 177.507812 269 C 177.316406 268.535156 177.171875 268.054688 177.070312 267.558594 C 176.972656 267.066406 176.925781 266.566406 176.925781 266.0625 C 176.925781 265.554688 176.972656 265.054688 177.070312 264.5625 C 177.171875 264.066406 177.316406 263.585938 177.507812 263.121094 C 177.703125 262.652344 177.9375 262.210938 178.21875 261.792969 C 178.5 261.371094 178.816406 260.984375 179.175781 260.628906 C 179.53125 260.269531 179.921875 259.953125 180.339844 259.671875 C 180.757812 259.390625 181.203125 259.15625 181.667969 258.960938 C 182.132812 258.769531 182.613281 258.621094 183.109375 258.523438 C 183.605469 258.425781 184.105469 258.375 184.609375 258.375 C 185.113281 258.375 185.613281 258.425781 186.109375 258.523438 C 186.601562 258.621094 187.082031 258.769531 187.550781 258.960938 C 188.015625 259.15625 188.457031 259.390625 188.878906 259.671875 C 189.296875 259.953125 189.683594 260.269531 190.042969 260.628906 C 190.398438 260.984375 190.71875 261.371094 190.996094 261.792969 C 191.277344 262.210938 191.515625 262.652344 191.707031 263.121094 C 191.902344 263.585938 192.046875 264.066406 192.144531 264.5625 C 192.242188 265.054688 192.292969 265.554688 192.292969 266.0625 Z M 237.542969 141.109375 C 237.789062 142.488281 237.980469 143.871094 238.117188 145.265625 C 238.257812 146.65625 238.339844 148.054688 238.371094 149.453125 C 238.398438 150.851562 238.375 152.25 238.296875 153.644531 C 238.21875 155.042969 238.085938 156.433594 237.898438 157.820312 C 237.714844 159.207031 237.472656 160.585938 237.179688 161.953125 C 236.886719 163.320312 236.542969 164.675781 236.144531 166.019531 C 235.746094 167.359375 235.296875 168.683594 234.792969 169.988281 C 234.292969 171.296875 233.742188 172.582031 233.144531 173.84375 C 232.542969 175.109375 231.894531 176.347656 231.195312 177.5625 C 230.5 178.773438 229.757812 179.960938 228.96875 181.113281 C 228.179688 182.269531 227.347656 183.394531 226.472656 184.484375 C 225.597656 185.578125 224.683594 186.632812 223.722656 187.652344 C 222.765625 188.675781 221.773438 189.65625 220.738281 190.597656 C 219.703125 191.542969 218.636719 192.445312 217.53125 193.304688 C 216.429688 194.164062 215.292969 194.980469 214.128906 195.753906 C 212.960938 196.527344 211.765625 197.25 210.542969 197.929688 C 209.21875 198.589844 207.945312 199.332031 206.71875 200.160156 C 205.496094 200.988281 204.332031 201.894531 203.230469 202.882812 C 202.128906 203.867188 201.097656 204.921875 200.140625 206.046875 C 199.179688 207.171875 198.300781 208.355469 197.5 209.597656 C 196.703125 210.84375 195.988281 212.132812 195.363281 213.472656 C 194.738281 214.8125 194.207031 216.1875 193.765625 217.597656 C 193.324219 219.007812 192.980469 220.445312 192.734375 221.902344 C 192.488281 223.359375 192.339844 224.828125 192.292969 226.304688 C 192.296875 226.828125 192.253906 227.34375 192.164062 227.859375 C 192.070312 228.375 191.933594 228.875 191.746094 229.363281 C 191.558594 229.851562 191.328125 230.316406 191.050781 230.761719 C 190.777344 231.207031 190.460938 231.621094 190.105469 232.003906 C 189.753906 232.390625 189.367188 232.738281 188.945312 233.046875 C 188.527344 233.359375 188.082031 233.628906 187.609375 233.855469 C 187.140625 234.082031 186.652344 234.261719 186.148438 234.398438 C 185.644531 234.53125 185.128906 234.617188 184.609375 234.65625 C 184.121094 234.695312 183.636719 234.679688 183.152344 234.617188 C 182.671875 234.558594 182.199219 234.445312 181.738281 234.289062 C 181.277344 234.128906 180.835938 233.925781 180.417969 233.675781 C 180 233.425781 179.609375 233.140625 179.25 232.808594 C 178.890625 232.480469 178.566406 232.121094 178.28125 231.726562 C 177.996094 231.328125 177.75 230.910156 177.550781 230.464844 C 177.351562 230.019531 177.199219 229.5625 177.09375 229.085938 C 176.988281 228.609375 176.929688 228.128906 176.925781 227.640625 L 176.925781 226.304688 C 176.96875 224.140625 177.15625 221.992188 177.488281 219.851562 C 177.820312 217.714844 178.296875 215.609375 178.914062 213.535156 C 179.53125 211.460938 180.289062 209.441406 181.179688 207.46875 C 182.070312 205.496094 183.089844 203.59375 184.238281 201.761719 C 185.386719 199.925781 186.652344 198.179688 188.039062 196.515625 C 189.421875 194.855469 190.914062 193.292969 192.507812 191.832031 C 194.105469 190.371094 195.792969 189.023438 197.570312 187.792969 C 199.347656 186.558594 201.199219 185.453125 203.128906 184.46875 C 204.113281 183.925781 205.074219 183.34375 206.007812 182.71875 C 206.941406 182.09375 207.84375 181.425781 208.71875 180.722656 C 209.59375 180.015625 210.4375 179.273438 211.246094 178.496094 C 212.058594 177.714844 212.832031 176.902344 213.570312 176.054688 C 214.308594 175.207031 215.011719 174.332031 215.671875 173.421875 C 216.332031 172.511719 216.953125 171.578125 217.535156 170.613281 C 218.113281 169.652344 218.648438 168.664062 219.144531 167.65625 C 219.636719 166.644531 220.082031 165.617188 220.484375 164.566406 C 220.890625 163.515625 221.246094 162.453125 221.554688 161.371094 C 221.863281 160.289062 222.125 159.199219 222.339844 158.09375 C 222.550781 156.992188 222.714844 155.878906 222.832031 154.761719 C 222.949219 153.644531 223.015625 152.523438 223.03125 151.398438 C 223.050781 150.277344 223.019531 149.152344 222.9375 148.03125 C 222.855469 146.910156 222.726562 145.796875 222.546875 144.6875 C 222.367188 143.578125 222.140625 142.476562 221.867188 141.386719 C 221.589844 140.296875 221.269531 139.222656 220.898438 138.160156 C 220.527344 137.097656 220.113281 136.054688 219.652344 135.03125 C 219.191406 134.007812 218.683594 133.003906 218.136719 132.023438 C 217.585938 131.042969 216.996094 130.085938 216.363281 129.160156 C 215.730469 128.230469 215.058594 127.332031 214.34375 126.460938 C 213.632812 125.589844 212.882812 124.753906 212.097656 123.949219 C 211.3125 123.144531 210.496094 122.378906 209.640625 121.644531 C 208.789062 120.914062 207.90625 120.21875 206.992188 119.566406 C 206.078125 118.910156 205.136719 118.296875 204.171875 117.726562 C 203.203125 117.152344 202.210938 116.625 201.199219 116.140625 C 200.183594 115.65625 199.152344 115.214844 198.097656 114.820312 C 197.046875 114.425781 195.976562 114.078125 194.894531 113.777344 C 193.8125 113.476562 192.71875 113.222656 191.613281 113.019531 C 190.507812 112.8125 189.394531 112.660156 188.277344 112.550781 C 187.160156 112.445312 186.035156 112.386719 184.914062 112.378906 C 183.789062 112.367188 182.667969 112.410156 181.546875 112.5 C 180.425781 112.589844 179.3125 112.726562 178.203125 112.914062 C 177.09375 113.101562 175.996094 113.335938 174.910156 113.621094 C 173.824219 113.90625 172.75 114.234375 171.691406 114.613281 C 170.632812 114.992188 169.59375 115.414062 168.570312 115.882812 C 167.550781 116.355469 166.550781 116.867188 165.574219 117.421875 C 164.597656 117.980469 163.648438 118.578125 162.722656 119.21875 C 161.800781 119.859375 160.90625 120.539062 160.042969 121.257812 C 159.179688 121.976562 158.347656 122.730469 157.550781 123.523438 C 156.75 124.316406 155.988281 125.140625 155.265625 126 C 154.539062 126.855469 153.851562 127.746094 153.203125 128.664062 C 152.558594 129.582031 151.953125 130.527344 151.386719 131.5 C 150.820312 132.472656 150.300781 133.46875 149.824219 134.484375 C 149.347656 135.503906 148.914062 136.539062 148.527344 137.59375 C 148.140625 138.648438 147.804688 139.71875 147.511719 140.804688 C 147.21875 141.890625 146.972656 142.988281 146.777344 144.09375 C 146.582031 145.199219 146.433594 146.3125 146.335938 147.433594 C 146.238281 148.550781 146.1875 149.675781 146.1875 150.796875 C 146.1875 151.304688 146.136719 151.800781 146.039062 152.296875 C 145.941406 152.792969 145.796875 153.273438 145.601562 153.738281 C 145.410156 154.207031 145.171875 154.648438 144.894531 155.066406 C 144.613281 155.488281 144.292969 155.875 143.9375 156.230469 C 143.582031 156.589844 143.191406 156.90625 142.773438 157.1875 C 142.351562 157.46875 141.910156 157.703125 141.445312 157.898438 C 140.976562 158.089844 140.496094 158.238281 140.003906 158.335938 C 139.507812 158.433594 139.007812 158.484375 138.503906 158.484375 C 138 158.484375 137.5 158.433594 137.003906 158.335938 C 136.507812 158.238281 136.027344 158.089844 135.5625 157.898438 C 135.097656 157.703125 134.652344 157.46875 134.234375 157.1875 C 133.816406 156.90625 133.425781 156.589844 133.070312 156.230469 C 132.714844 155.875 132.394531 155.488281 132.113281 155.066406 C 131.835938 154.648438 131.597656 154.207031 131.40625 153.738281 C 131.210938 153.273438 131.066406 152.792969 130.96875 152.296875 C 130.867188 151.800781 130.820312 151.304688 130.820312 150.796875 C 130.820312 149.136719 130.894531 147.480469 131.046875 145.828125 C 131.199219 144.171875 131.429688 142.53125 131.734375 140.898438 C 132.039062 139.265625 132.417969 137.648438 132.875 136.054688 C 133.328125 134.457031 133.855469 132.882812 134.457031 131.335938 C 135.054688 129.785156 135.726562 128.269531 136.46875 126.78125 C 137.207031 125.296875 138.015625 123.847656 138.890625 122.433594 C 139.765625 121.023438 140.703125 119.65625 141.707031 118.332031 C 142.707031 117.007812 143.769531 115.730469 144.886719 114.503906 C 146.007812 113.277344 147.179688 112.105469 148.410156 110.988281 C 149.636719 109.871094 150.914062 108.8125 152.242188 107.8125 C 153.566406 106.8125 154.9375 105.875 156.351562 105.003906 C 157.761719 104.132812 159.214844 103.324219 160.703125 102.585938 C 162.1875 101.847656 163.707031 101.179688 165.257812 100.582031 C 166.804688 99.984375 168.378906 99.460938 169.976562 99.007812 C 171.578125 98.558594 173.191406 98.179688 174.824219 97.878906 C 176.457031 97.574219 178.101562 97.347656 179.753906 97.199219 C 181.410156 97.046875 183.066406 96.976562 184.726562 96.980469 C 186.386719 96.980469 188.042969 97.0625 189.699219 97.21875 C 191.351562 97.375 192.992188 97.609375 194.625 97.917969 C 196.257812 98.226562 197.871094 98.609375 199.46875 99.070312 C 201.0625 99.527344 202.636719 100.058594 204.183594 100.660156 C 205.730469 101.265625 207.246094 101.941406 208.730469 102.683594 C 210.214844 103.429688 211.660156 104.238281 213.070312 105.117188 C 214.480469 105.996094 215.847656 106.9375 217.167969 107.941406 C 218.492188 108.949219 219.765625 110.011719 220.988281 111.132812 C 222.210938 112.257812 223.378906 113.433594 224.496094 114.664062 C 225.609375 115.894531 226.664062 117.175781 227.664062 118.503906 C 228.660156 119.832031 229.589844 121.203125 230.460938 122.621094 C 231.328125 124.035156 232.132812 125.488281 232.867188 126.976562 C 233.601562 128.464844 234.265625 129.984375 234.859375 131.535156 C 235.453125 133.085938 235.972656 134.664062 236.421875 136.261719 C 236.871094 137.859375 237.242188 139.476562 237.542969 141.109375 Z M 237.542969 141.109375 " fill-opacity="1" fill-rule="nonzero"/></svg>