<svg xmlns="http://www.w3.org/2000/svg" xmlns:xlink="http://www.w3.org/1999/xlink" width="500" zoomAndPan="magnify" viewBox="0 0 375 374.999991" height="500" preserveAspectRatio="xMidYMid meet" version="1.0"><defs><clipPath id="9d5a27e819"><path d="M 51 18.84375 L 324 18.84375 L 324 356.34375 L 51 356.34375 Z M 51 18.84375 " clip-rule="nonzero"/></clipPath><clipPath id="0a97b5479c"><path d="M 214.175781 29.390625 L 324.425781 29.390625 L 324.425781 139.640625 L 214.175781 139.640625 Z M 214.175781 29.390625 " clip-rule="nonzero"/></clipPath></defs><g clip-path="url(#9d5a27e819)"><path fill="#040606" d="M 75.074219 163.328125 L 75.074219 248.34375 C 75.074219 254.535156 73.605469 260.753906 70.84375 266.304688 L 51.867188 304.320312 C 50.621094 306.8125 50.753906 309.777344 52.21875 312.136719 C 53.675781 314.5 56.253906 315.953125 59.03125 315.953125 L 139.949219 315.953125 C 143.785156 338.703125 163.546875 356.109375 187.339844 356.109375 C 200.136719 356.109375 212.222656 351.125 221.429688 341.992188 C 228.550781 334.777344 233.109375 325.726562 234.746094 315.953125 L 315.636719 315.953125 C 318.425781 315.953125 321.007812 314.5 322.460938 312.136719 C 323.925781 309.777344 324.058594 306.8125 322.816406 304.320312 L 303.839844 266.304688 C 301.074219 260.753906 299.609375 254.535156 299.609375 248.34375 L 299.609375 163.328125 C 299.609375 133.3125 287.929688 105.082031 266.699219 83.832031 C 253.355469 70.453125 236.984375 60.742188 218.914062 55.390625 C 219.125 53.894531 219.410156 52.414062 219.410156 50.867188 C 219.410156 33.15625 205.03125 18.738281 187.339844 18.738281 C 169.648438 18.738281 155.269531 33.15625 155.269531 50.867188 C 155.269531 52.425781 155.558594 53.910156 155.765625 55.417969 C 108.542969 69.308594 75.074219 113.375 75.074219 163.328125 Z M 210.085938 330.648438 C 203.972656 336.707031 195.878906 340.050781 187.339844 340.050781 C 172.425781 340.050781 159.851562 329.792969 156.277344 315.953125 L 218.417969 315.953125 C 217.003906 321.453125 214.160156 326.515625 210.085938 330.648438 Z M 187.339844 34.808594 C 196.179688 34.808594 203.382812 42.011719 203.382812 50.867188 C 203.382812 51.246094 203.371094 51.628906 203.34375 52.007812 C 202.375 51.863281 201.40625 51.8125 200.449219 51.691406 C 199.558594 51.585938 198.679688 51.496094 197.804688 51.417969 C 194.308594 51.089844 190.8125 50.867188 187.339844 50.867188 C 183.855469 50.867188 180.347656 51.089844 176.851562 51.417969 C 176 51.496094 175.148438 51.585938 174.296875 51.691406 C 173.316406 51.796875 172.320312 51.863281 171.339844 52.007812 C 171.3125 51.628906 171.296875 51.246094 171.296875 50.867188 C 171.296875 42.011719 178.5 34.808594 187.339844 34.808594 Z M 167.226562 69.019531 C 177.242188 66.949219 187.394531 66.4375 197.410156 67.460938 C 200.765625 67.816406 204.101562 68.328125 207.429688 69.007812 C 225.644531 72.957031 242.210938 82.007812 255.359375 95.179688 C 273.550781 113.398438 283.566406 137.601562 283.566406 163.328125 L 283.566406 248.34375 C 283.566406 257.027344 285.625 265.726562 289.484375 273.492188 L 302.671875 299.886719 L 72.007812 299.886719 L 85.195312 273.492188 C 89.058594 265.726562 91.113281 257.027344 91.113281 248.34375 L 91.113281 163.328125 C 91.113281 118.070312 123.144531 78.402344 167.226562 69.019531 " fill-opacity="1" fill-rule="nonzero"/></g><g clip-path="url(#0a97b5479c)"><path fill="#f2b3b3" d="M 324.53125 84.566406 C 324.53125 86.375 324.441406 88.175781 324.265625 89.976562 C 324.089844 91.773438 323.824219 93.558594 323.472656 95.332031 C 323.117188 97.105469 322.679688 98.855469 322.15625 100.585938 C 321.632812 102.3125 321.023438 104.011719 320.332031 105.683594 C 319.640625 107.351562 318.867188 108.984375 318.015625 110.578125 C 317.164062 112.171875 316.238281 113.71875 315.234375 115.222656 C 314.230469 116.726562 313.152344 118.175781 312.007812 119.570312 C 310.859375 120.96875 309.648438 122.304688 308.371094 123.582031 C 307.09375 124.863281 305.753906 126.074219 304.359375 127.21875 C 302.960938 128.367188 301.511719 129.441406 300.007812 130.445312 C 298.507812 131.449219 296.957031 132.378906 295.363281 133.230469 C 293.769531 134.082031 292.140625 134.851562 290.46875 135.542969 C 288.800781 136.234375 287.101562 136.84375 285.371094 137.367188 C 283.640625 137.894531 281.890625 138.332031 280.117188 138.683594 C 278.347656 139.035156 276.5625 139.300781 274.761719 139.480469 C 272.964844 139.65625 271.160156 139.746094 269.355469 139.746094 C 267.546875 139.746094 265.746094 139.65625 263.945312 139.480469 C 262.148438 139.300781 260.363281 139.035156 258.589844 138.683594 C 256.816406 138.332031 255.066406 137.894531 253.335938 137.367188 C 251.609375 136.84375 249.910156 136.234375 248.238281 135.542969 C 246.570312 134.851562 244.9375 134.082031 243.34375 133.230469 C 241.75 132.378906 240.203125 131.449219 238.699219 130.445312 C 237.199219 129.441406 235.746094 128.367188 234.351562 127.21875 C 232.953125 126.074219 231.617188 124.863281 230.339844 123.582031 C 229.0625 122.304688 227.847656 120.96875 226.703125 119.570312 C 225.554688 118.175781 224.480469 116.726562 223.476562 115.222656 C 222.472656 113.71875 221.542969 112.171875 220.691406 110.578125 C 219.839844 108.984375 219.070312 107.351562 218.378906 105.683594 C 217.6875 104.011719 217.078125 102.3125 216.554688 100.585938 C 216.027344 98.855469 215.589844 97.105469 215.238281 95.332031 C 214.886719 93.558594 214.621094 91.773438 214.445312 89.976562 C 214.265625 88.175781 214.175781 86.375 214.175781 84.566406 C 214.175781 82.761719 214.265625 80.957031 214.445312 79.160156 C 214.621094 77.359375 214.886719 75.574219 215.238281 73.804688 C 215.589844 72.03125 216.027344 70.28125 216.554688 68.550781 C 217.078125 66.820312 217.6875 65.121094 218.378906 63.453125 C 219.070312 61.78125 219.839844 60.152344 220.691406 58.558594 C 221.542969 56.964844 222.472656 55.414062 223.476562 53.914062 C 224.480469 52.410156 225.554688 50.960938 226.703125 49.5625 C 227.847656 48.167969 229.0625 46.828125 230.339844 45.550781 C 231.617188 44.273438 232.953125 43.0625 234.351562 41.914062 C 235.746094 40.769531 237.199219 39.695312 238.699219 38.691406 C 240.203125 37.6875 241.75 36.757812 243.34375 35.90625 C 244.9375 35.054688 246.570312 34.28125 248.238281 33.589844 C 249.910156 32.898438 251.609375 32.292969 253.335938 31.765625 C 255.066406 31.242188 256.816406 30.804688 258.589844 30.449219 C 260.363281 30.097656 262.148438 29.832031 263.945312 29.65625 C 265.746094 29.480469 267.546875 29.390625 269.355469 29.390625 C 271.160156 29.390625 272.964844 29.480469 274.761719 29.65625 C 276.5625 29.832031 278.347656 30.097656 280.117188 30.449219 C 281.890625 30.804688 283.640625 31.242188 285.371094 31.765625 C 287.101562 32.292969 288.800781 32.898438 290.46875 33.589844 C 292.140625 34.28125 293.769531 35.054688 295.363281 35.90625 C 296.957031 36.757812 298.507812 37.6875 300.007812 38.691406 C 301.511719 39.695312 302.960938 40.769531 304.359375 41.914062 C 305.753906 43.0625 307.09375 44.273438 308.371094 45.550781 C 309.648438 46.828125 310.859375 48.167969 312.007812 49.5625 C 313.152344 50.960938 314.230469 52.410156 315.234375 53.914062 C 316.238281 55.414062 317.164062 56.964844 318.015625 58.558594 C 318.867188 60.152344 319.640625 61.78125 320.332031 63.453125 C 321.023438 65.121094 321.632812 66.820312 322.15625 68.550781 C 322.679688 70.28125 323.117188 72.03125 323.472656 73.804688 C 323.824219 75.574219 324.089844 77.359375 324.265625 79.160156 C 324.441406 80.957031 324.53125 82.761719 324.53125 84.566406 Z M 324.53125 84.566406 " fill-opacity="1" fill-rule="nonzero"/></g></svg>